<?xml version="1.0" encoding="UTF-8"?>
<svg width="32" height="32" viewBox="0 0 24 24" fill="none" xmlns="http://www.w3.org/2000/svg">
  <path d="M15 5.5A2.5 2.5 0 0 0 12.5 3h-1.76a2.74 2.74 0 0 0-2.74 2.74v1.68a2.74 2.74 0 0 0 2.74 2.74h1.76A2.5 2.5 0 0 0 15 7.66" stroke="currentColor" stroke-width="2" stroke-linecap="round" stroke-linejoin="round"/>
  <path d="M14 9.5a2.5 2.5 0 0 0-2.5 2.5v.76a2.74 2.74 0 0 1-2.74 2.74h-1.68A2.74 2.74 0 0 1 4.34 12.76v-1.76A2.5 2.5 0 0 1 6.84 8.5" stroke="currentColor" stroke-width="2" stroke-linecap="round" stroke-linejoin="round"/>
  <path d="m7 15 4.5 4.5" stroke="currentColor" stroke-width="2" stroke-linecap="round" stroke-linejoin="round"/>
  <path d="M19.5 4.5 15 9" stroke="currentColor" stroke-width="2" stroke-linecap="round" stroke-linejoin="round"/>
  <path d="m15 4.5 3.5 3.5" stroke="currentColor" stroke-width="2" stroke-linecap="round" stroke-linejoin="round"/>
</svg>
